<?xml version="1.0" encoding="utf-8"?>
<!-- Generator: Adobe Illustrator 22.1.0, SVG Export Plug-In . SVG Version: 6.00 Build 0)  -->
<svg version="1.1" xmlns="http://www.w3.org/2000/svg" xmlns:xlink="http://www.w3.org/1999/xlink" x="0px" y="0px"
	 viewBox="0 0 142 123" style="enable-background:new 0 0 142 123;" xml:space="preserve">
<style type="text/css">
	.st0{fill:none;}
	.st1{fill:url(#SVGID_1_);}
	.st2{fill:url(#SVGID_2_);}
	.st3{fill:url(#SVGID_3_);}
	.st4{fill:url(#SVGID_4_);}
	.st5{display:none;}
	.st6{display:inline;}
	.st7{fill:url(#SVGID_5_);}
	.st8{fill:url(#SVGID_6_);}
	.st9{fill:url(#SVGID_7_);}
	.st10{fill:url(#SVGID_8_);}
	.st11{fill:url(#SVGID_9_);}
	.st12{fill:url(#SVGID_10_);}
	.st13{fill:url(#SVGID_11_);}
	.st14{fill:url(#SVGID_12_);}
	.st15{fill:url(#SVGID_13_);}
	.st16{fill:url(#SVGID_14_);}
	.st17{fill:url(#SVGID_15_);}
	.st18{fill:url(#SVGID_16_);}
	.st19{fill:url(#SVGID_17_);}
	.st20{fill:url(#SVGID_18_);}
	.st21{fill:url(#SVGID_19_);}
	.st22{fill:url(#SVGID_20_);}
	.st23{fill:url(#SVGID_21_);}
	.st24{fill:url(#SVGID_22_);}
	.st25{fill:url(#SVGID_23_);}
	.st26{fill:url(#SVGID_24_);}
	.st27{fill:url(#SVGID_25_);}
	.st28{fill:url(#SVGID_26_);}
	.st29{fill:url(#SVGID_27_);}
	.st30{fill:url(#SVGID_28_);}
	.st31{fill:url(#SVGID_29_);}
	.st32{fill:url(#SVGID_30_);}
	.st33{fill:url(#SVGID_31_);}
	.st34{fill:url(#SVGID_32_);}
	.st35{fill:url(#SVGID_33_);}
	.st36{fill:url(#SVGID_34_);}
	.st37{fill:url(#SVGID_35_);}
	.st38{fill:url(#SVGID_36_);}
	.st39{fill:url(#SVGID_37_);}
	.st40{fill:url(#SVGID_38_);}
	.st41{fill:url(#SVGID_39_);}
	.st42{fill:url(#SVGID_40_);}
	.st43{fill:url(#SVGID_41_);}
	.st44{fill:url(#SVGID_42_);}
	.st45{fill:url(#SVGID_43_);}
	.st46{fill:url(#SVGID_44_);}
	.st47{fill:url(#SVGID_45_);}
	.st48{fill:url(#SVGID_46_);}
</style>
<g id="F">
	<g>
		<g>
			<path class="st0" d="M47.7,40.9c0.2,1,1.5,1.1,2,0.3c4.1-7.1,10-10.4,13.2-11.8C48.9,34.7,47.2,38.7,47.7,40.9z"/>
			<circle class="st0" cx="84.8" cy="36.8" r="2.4"/>
			<g>
				<linearGradient id="SVGID_1_" gradientUnits="userSpaceOnUse" x1="44.9659" y1="7.1215" x2="84.0135" y2="44.1837">
					<stop  offset="0" style="stop-color:#0095A2"/>
					<stop  offset="0.5" style="stop-color:#009581"/>
					<stop  offset="1" style="stop-color:#006872"/>
				</linearGradient>
				<path class="st1" d="M76.1,25.3c-6.8,13.3-1.5,28.3,0.5,33c0.2,0.5,0.7,0.7,1.2,0.7c6.5-1,17.8-4.6,23.2-17.9
					c0.1-0.3,0.1-0.7-0.1-1c-1.7-2.5-9.8-13.3-23.6-15.4C76.8,24.6,76.3,24.8,76.1,25.3z M85.1,38.9c-1.3,0-2.4-1.1-2.4-2.4
					s1.1-2.4,2.4-2.4s2.4,1.1,2.4,2.4S86.5,38.9,85.1,38.9z"/>
				<linearGradient id="SVGID_2_" gradientUnits="userSpaceOnUse" x1="22.4393" y1="30.8549" x2="61.4869" y2="67.917">
					<stop  offset="0" style="stop-color:#0095A2"/>
					<stop  offset="0.5" style="stop-color:#009581"/>
					<stop  offset="1" style="stop-color:#006872"/>
				</linearGradient>
				<path class="st2" d="M73.2,24.3c-6.6-0.1-14.3,1.9-23.1,7.4c0,0-0.1,0-0.1,0.1C49,32.7,31.8,47.2,38,73c0,0.1,0,0.2,0,0.2
					c0,1.1,3.7,12.6-11.4,14.7c-1.1,0.2-0.7,2,0.4,2.1c4.5,0.4,13.1,0.4,16.3,4.7c0.6,0.8,2-0.3,1.6-1.3c-1.6-4.6-2.5-11.3,0.8-16.4
					c6.5-10.1,10.4-15.6,27-17.7c0.1,0,0.1,0,0.2,0c0.1,0,0.2,0,0.6,0c0.7-0.1,1.2-0.8,1-1.5c-5.7-15.3-3.9-24.8-0.5-31.8
					C74.5,25.2,74,24.4,73.2,24.3z M59,58.2c-0.4-0.3-1.1-0.5-1.8-0.6c-1-0.2-1.3-1.5-0.4-2c0.9-0.5,1.6-1.2,2.5-2.3l0.2-0.3
					c0.6-0.8,1.8-0.4,2,0.5c0.4,2.3-0.2,3.7-0.9,4.5C60.2,58.4,59.5,58.5,59,58.2z M63.3,29.1c-2.8,1.2-10.5,5.2-13.2,9.9
					c-0.7,1.2-2.6,0.3-2-1C49.2,35.7,53,32.6,63.3,29.1C63.3,29.1,63.3,29.1,63.3,29.1c1.4-0.6,2.3-0.8,2.3-0.8
					C64.8,28.5,64,28.8,63.3,29.1z"/>
			</g>
			<g>
				<linearGradient id="SVGID_3_" gradientUnits="userSpaceOnUse" x1="30.9158" y1="13.3003" x2="89.1563" y2="122.5012">
					<stop  offset="0" style="stop-color:#7FE7FF"/>
					<stop  offset="0.1559" style="stop-color:#4ED8E3"/>
					<stop  offset="0.7475" style="stop-color:#00BFB7"/>
					<stop  offset="1" style="stop-color:#009FB7"/>
				</linearGradient>
				<path class="st3" d="M74.7,95.7c6.5-12.7,1.4-26.9-0.5-31.4c-0.2-0.4-0.7-0.7-1.1-0.6C67,64.5,56.2,68,51,80.6
					c-0.1,0.3-0.1,0.7,0.1,1c1.6,2.3,9.3,12.7,22.5,14.6C74.1,96.3,74.5,96.1,74.7,95.7z M66.2,82.7c1.3,0,2.3,1,2.3,2.3
					c0,1.3-1,2.3-2.3,2.3c-1.3,0-2.3-1-2.3-2.3C63.9,83.7,64.9,82.7,66.2,82.7z"/>
				<linearGradient id="SVGID_4_" gradientUnits="userSpaceOnUse" x1="62.6735" y1="-3.6371" x2="120.914" y2="105.5638">
					<stop  offset="0" style="stop-color:#7FE7FF"/>
					<stop  offset="0.1559" style="stop-color:#4ED8E3"/>
					<stop  offset="0.7475" style="stop-color:#00BFB7"/>
					<stop  offset="1" style="stop-color:#009FB7"/>
				</linearGradient>
				<path class="st4" d="M77.5,96.5c6.3,0.1,13.6-1.8,21.9-7c0,0,0.1,0,0.1-0.1c1-0.8,17.4-14.7,11.4-39.2c0-0.1,0-0.1,0-0.2
					c0-1-3.5-11.9,10.8-14c1.1-0.1,0.7-1.9-0.4-2c-4.3-0.4-12.5-0.3-15.5-4.5c-0.6-0.8-1.9,0.3-1.6,1.2c1.5,4.4,2.3,10.7-0.8,15.6
					c-6.2,9.6-9.9,14.9-25.7,16.9c-0.1,0-0.1,0-0.2,0c-0.1,0-0.2,0-0.6,0c-0.7,0.1-1.2,0.8-0.9,1.4c5.5,14.6,3.7,23.6,0.4,30.3
					C76.2,95.7,76.7,96.5,77.5,96.5z M91.1,64.3c0.4,0.3,1,0.5,1.7,0.6c1,0.1,1.2,1.4,0.4,2c-0.8,0.5-1.6,1.1-2.4,2.2l-0.2,0.3
					c-0.6,0.7-1.7,0.4-1.9-0.5c-0.4-2.2,0.2-3.5,0.8-4.3C89.9,64.1,90.6,64,91.1,64.3z M87,92c2.6-1.1,10-4.9,12.5-9.4
					c0.7-1.2,2.5-0.3,1.9,0.9C100.3,85.8,96.7,88.7,87,92C87,92,87,92,87,92c-1.4,0.6-2.2,0.8-2.2,0.8C85.5,92.5,86.3,92.3,87,92z"
					/>
			</g>
			<path d="M65.3,28.6c0,0-0.9,0.2-2.3,0.8C63.7,29.1,64.5,28.9,65.3,28.6z"/>
		</g>
	</g>
</g>
<g id="G" class="st5">
	<g class="st6">
		<g>
			<g>
				<g>
					<linearGradient id="SVGID_5_" gradientUnits="userSpaceOnUse" x1="244.6584" y1="104.3303" x2="251.4646" y2="258.6031">
						<stop  offset="0" style="stop-color:#7FE7FF"/>
						<stop  offset="0.1559" style="stop-color:#4ED8E3"/>
						<stop  offset="0.7475" style="stop-color:#00BFB7"/>
						<stop  offset="1" style="stop-color:#009FB7"/>
					</linearGradient>
					<path class="st7" d="M282.8,197.6v24.1h-19.9v49.2h-27.2v-49.2h-19.9v-24.1H282.8z"/>
					<linearGradient id="SVGID_6_" gradientUnits="userSpaceOnUse" x1="311.3933" y1="101.3861" x2="318.1994" y2="255.6589">
						<stop  offset="0" style="stop-color:#7FE7FF"/>
						<stop  offset="0.1559" style="stop-color:#4ED8E3"/>
						<stop  offset="0.7475" style="stop-color:#00BFB7"/>
						<stop  offset="1" style="stop-color:#009FB7"/>
					</linearGradient>
					<path class="st8" d="M358.1,270.8h-30.3l-2.1-10.5h-13.6l-2.1,10.5h-30.3l21.4-73.2h35.6C336.8,198,358.1,270.8,358.1,270.8z
						 M322.5,243.6l-3.7-18.8l-3.7,18.8H322.5z"/>
					<linearGradient id="SVGID_7_" gradientUnits="userSpaceOnUse" x1="389.7893" y1="97.9275" x2="396.5955" y2="252.2002">
						<stop  offset="0" style="stop-color:#7FE7FF"/>
						<stop  offset="0.1559" style="stop-color:#4ED8E3"/>
						<stop  offset="0.7475" style="stop-color:#00BFB7"/>
						<stop  offset="1" style="stop-color:#009FB7"/>
					</linearGradient>
					<path class="st9" d="M399.9,196c19.9,0,29.3,11.5,29.3,11.5l-12.6,19.9c0,0-6.3-5.8-13.6-5.8s-12.6,5.2-12.6,12.6
						c0,7.3,5.2,12.6,12.6,12.6s13.6-5.8,13.6-5.8l12.6,19.9c0,0-9.4,11.5-29.3,11.5c-22,0-38.7-16.7-38.7-38.2
						C361.2,212.7,378,196,399.9,196z"/>
					<linearGradient id="SVGID_8_" gradientUnits="userSpaceOnUse" x1="467.0037" y1="94.521" x2="473.8099" y2="248.7937">
						<stop  offset="0" style="stop-color:#7FE7FF"/>
						<stop  offset="0.1559" style="stop-color:#4ED8E3"/>
						<stop  offset="0.7475" style="stop-color:#00BFB7"/>
						<stop  offset="1" style="stop-color:#009FB7"/>
					</linearGradient>
					<path class="st10" d="M488.9,234.2l22,36.6h-31.4l-14.6-29.3v29.3h-27.2v-73.2h27.2v29.3l12.6-29.3h31.4L488.9,234.2z"/>
					<linearGradient id="SVGID_9_" gradientUnits="userSpaceOnUse" x1="536.3972" y1="91.4595" x2="543.2032" y2="245.7322">
						<stop  offset="0" style="stop-color:#7FE7FF"/>
						<stop  offset="0.1559" style="stop-color:#4ED8E3"/>
						<stop  offset="0.7475" style="stop-color:#00BFB7"/>
						<stop  offset="1" style="stop-color:#009FB7"/>
					</linearGradient>
					<path class="st11" d="M543.3,246.7h28.2v24.1h-55.4v-73.2h27.2V246.7z"/>
					<linearGradient id="SVGID_10_" gradientUnits="userSpaceOnUse" x1="601.6875" y1="88.579" x2="608.4937" y2="242.8518">
						<stop  offset="0" style="stop-color:#7FE7FF"/>
						<stop  offset="0.1559" style="stop-color:#4ED8E3"/>
						<stop  offset="0.7475" style="stop-color:#00BFB7"/>
						<stop  offset="1" style="stop-color:#009FB7"/>
					</linearGradient>
					<path class="st12" d="M607.1,249.9h31.4v20.9h-58.6v-73.2h56.5v20.9h-29.3v5.2h27.2v20.9h-27.2V249.9z"/>
				</g>
				<g>
					<path class="st0" d="M128.6,213.2c0.2,1,1.5,1.1,2,0.3c4.1-7,9.9-10.3,13.1-11.7C129.8,206.9,128.1,211,128.6,213.2z"/>
					<circle class="st0" cx="165.4" cy="209.1" r="2.4"/>
					<g>
						<linearGradient id="SVGID_11_" gradientUnits="userSpaceOnUse" x1="125.8542" y1="179.5724" x2="164.672" y2="216.4164">
							<stop  offset="0" style="stop-color:#0095A2"/>
							<stop  offset="0.5" style="stop-color:#009581"/>
							<stop  offset="1" style="stop-color:#006872"/>
						</linearGradient>
						<path class="st13" d="M156.8,197.6c-6.8,13.3-1.5,28.1,0.5,32.8c0.2,0.5,0.7,0.7,1.2,0.7c6.4-1,17.7-4.6,23.1-17.7
							c0.1-0.3,0.1-0.7-0.1-1c-1.7-2.5-9.8-13.3-23.5-15.3C157.5,196.9,157,197.2,156.8,197.6z M165.8,211.2c-1.3,0-2.4-1.1-2.4-2.4
							c0-1.3,1.1-2.4,2.4-2.4c1.3,0,2.4,1.1,2.4,2.4C168.2,210.1,167.1,211.2,165.8,211.2z"/>
						<linearGradient id="SVGID_12_" gradientUnits="userSpaceOnUse" x1="103.4602" y1="203.1661" x2="142.278" y2="240.01">
							<stop  offset="0" style="stop-color:#0095A2"/>
							<stop  offset="0.5" style="stop-color:#009581"/>
							<stop  offset="1" style="stop-color:#006872"/>
						</linearGradient>
						<path class="st14" d="M153.9,196.7c-6.6-0.1-14.2,1.8-22.9,7.3c0,0-0.1,0-0.1,0.1c-1.1,0.9-18.2,15.3-12,41c0,0.1,0,0.2,0,0.2
							c0,1.1,3.7,12.5-11.3,14.6c-1.1,0.2-0.7,2,0.4,2.1c4.5,0.4,13.1,0.4,16.2,4.7c0.6,0.8,2-0.3,1.6-1.3
							c-1.6-4.6-2.4-11.2,0.8-16.3c6.5-10,10.3-15.5,26.9-17.6c0.1,0,0.1,0,0.2,0c0.1,0,0.2,0,0.6,0c0.7-0.1,1.2-0.8,1-1.5
							c-5.7-15.2-3.8-24.7-0.5-31.6C155.3,197.6,154.8,196.7,153.9,196.7z M139.8,230.3c-0.4-0.3-1.1-0.5-1.8-0.6
							c-1-0.2-1.3-1.5-0.4-2c0.9-0.5,1.6-1.2,2.5-2.3l0.2-0.3c0.6-0.7,1.8-0.4,2,0.5c0.4,2.3-0.2,3.7-0.9,4.5
							C141,230.6,140.3,230.6,139.8,230.3z M144.1,201.4c-2.8,1.2-10.4,5.1-13.1,9.8c-0.7,1.2-2.6,0.3-2-1
							C130.1,207.9,133.9,204.9,144.1,201.4C144,201.4,144.1,201.4,144.1,201.4c1.4-0.6,2.3-0.8,2.3-0.8
							C145.6,200.9,144.8,201.1,144.1,201.4z"/>
					</g>
					<g>
						<linearGradient id="SVGID_13_" gradientUnits="userSpaceOnUse" x1="111.8869" y1="185.7148" x2="169.7846" y2="294.2729">
							<stop  offset="0" style="stop-color:#7FE7FF"/>
							<stop  offset="0.1559" style="stop-color:#4ED8E3"/>
							<stop  offset="0.7475" style="stop-color:#00BFB7"/>
							<stop  offset="1" style="stop-color:#009FB7"/>
						</linearGradient>
						<path class="st15" d="M155.5,267.6c6.4-12.6,1.4-26.8-0.5-31.2c-0.2-0.4-0.6-0.7-1.1-0.6c-6.1,0.9-16.8,4.3-22,16.9
							c-0.1,0.3-0.1,0.7,0.1,1c1.6,2.3,9.3,12.6,22.3,14.6C154.8,268.2,155.2,268,155.5,267.6z M146.9,254.7c1.3,0,2.3,1,2.3,2.3
							c0,1.3-1,2.3-2.3,2.3c-1.3,0-2.3-1-2.3-2.3C144.6,255.7,145.7,254.7,146.9,254.7z"/>
						<linearGradient id="SVGID_14_" gradientUnits="userSpaceOnUse" x1="143.4577" y1="168.8771" x2="201.3553" y2="277.4352">
							<stop  offset="0" style="stop-color:#7FE7FF"/>
							<stop  offset="0.1559" style="stop-color:#4ED8E3"/>
							<stop  offset="0.7475" style="stop-color:#00BFB7"/>
							<stop  offset="1" style="stop-color:#009FB7"/>
						</linearGradient>
						<path class="st16" d="M158.2,268.5c6.2,0.1,13.5-1.8,21.8-7c0,0,0.1,0,0.1-0.1c1-0.8,17.3-14.6,11.4-39c0-0.1,0-0.1,0-0.2
							c0-1-3.5-11.9,10.8-13.9c1-0.1,0.7-1.9-0.4-2c-4.3-0.4-12.4-0.3-15.4-4.4c-0.6-0.8-1.9,0.3-1.5,1.2c1.5,4.4,2.3,10.6-0.8,15.5
							c-6.1,9.5-9.8,14.8-25.6,16.8c-0.1,0-0.1,0-0.2,0c-0.1,0-0.2,0-0.6,0c-0.7,0.1-1.2,0.8-0.9,1.4c5.4,14.5,3.7,23.5,0.4,30.1
							C156.9,267.6,157.4,268.5,158.2,268.5z M171.7,236.5c0.4,0.3,1,0.5,1.7,0.6c1,0.1,1.2,1.4,0.4,1.9c-0.8,0.5-1.6,1.1-2.3,2.1
							l-0.2,0.3c-0.6,0.7-1.7,0.4-1.9-0.5c-0.4-2.2,0.2-3.5,0.8-4.2C170.6,236.2,171.2,236.2,171.7,236.5z M167.6,264
							c2.6-1.1,9.9-4.9,12.4-9.3c0.7-1.2,2.5-0.3,1.9,0.9C180.9,257.8,177.3,260.7,167.6,264C167.6,264,167.6,264,167.6,264
							c-1.4,0.6-2.2,0.8-2.2,0.8C166.2,264.5,166.9,264.2,167.6,264z"/>
					</g>
					<path d="M146,200.9c0,0-0.9,0.2-2.3,0.8C144.5,201.5,145.2,201.2,146,200.9z"/>
				</g>
			</g>
		</g>
		<g>
			<linearGradient id="SVGID_15_" gradientUnits="userSpaceOnUse" x1="352.6274" y1="234.5503" x2="366.0457" y2="318.8932">
				<stop  offset="0" style="stop-color:#0095A2"/>
				<stop  offset="0.5" style="stop-color:#009581"/>
				<stop  offset="1" style="stop-color:#006872"/>
			</linearGradient>
			<path class="st17" d="M395.5,269.4c0,1.6-2.7,5.6-8,12h-1.1c-0.8-0.3-1.4-1.6-1.6-3.7c-0.5-4.3-1.9-7.8-4.4-10.5
				c-2.5-2.7-5.5-4.1-9-4.1c-3.3,0-6.1,1.2-8.5,3.6c-2.4,2.4-3.6,5.2-3.6,8.6c0,2.4,0.8,5,2.3,7.7c1.5,2.8,5.4,7.1,11.7,13.1
				c6.3,6,10.3,10.8,12.1,14.3c1.8,3.6,2.7,6.9,2.7,10.1c0,7.4-3.2,13.9-9.6,19.5c-6.4,5.6-13.9,8.4-22.5,8.4c-7.1,0-13-1.7-17.6-5
				c-4.6-3.3-6.9-6-6.9-8.1c0-1.2,1.3-3.9,3.8-8.1c2.5-4.2,4-6.4,4.4-6.4c1.3,0,2.3,0.4,2.8,1.2c0.6,0.8,0.9,2.2,1.2,4.3
				c0.6,6.5,2.2,10.9,4.7,13.4c2.5,2.5,5.8,3.7,9.8,3.7c4.4,0,8.2-1.5,11.5-4.6c3.3-3.1,4.9-6.6,4.9-10.6c0-2.1-0.6-4.3-1.9-6.6
				c-1.3-2.3-4.9-6.3-10.8-12c-5.9-5.6-9.8-10.4-11.6-14.3c-1.8-3.9-2.7-7.7-2.7-11.4c0-6.4,2.4-12.4,7.3-17.8
				c4.9-5.4,11.3-8.1,19.4-8.1c6.1,0,11.2,1.4,15.2,4.2C393.4,265.2,395.5,267.6,395.5,269.4z"/>
			<linearGradient id="SVGID_16_" gradientUnits="userSpaceOnUse" x1="427.9093" y1="222.5737" x2="441.3275" y2="306.9166">
				<stop  offset="0" style="stop-color:#0095A2"/>
				<stop  offset="0.5" style="stop-color:#009581"/>
				<stop  offset="1" style="stop-color:#006872"/>
			</linearGradient>
			<path class="st18" d="M488.6,333.2c-2,1.7-4,2.8-6,3.6c-2,0.7-3.5,1.1-4.6,1.1c-3,0-6-1.2-8.9-3.5c-7.6,9.4-15.3,14.1-23.4,14.1
				c-5.9,0-10.1-3.2-12.6-9.7c-5.6,6.5-11.6,9.7-18,9.7c-4.2,0-7.5-1.4-9.9-4.1c-2.4-2.8-3.6-6.6-3.6-11.4c0-5.2,0.7-10.5,2.2-15.9
				c1.5-5.4,3.7-12,6.8-19.8l16.4-3l-4.6,13.9c-3.9,12-5.8,20.3-5.8,24.9c0,2.2,0.5,3.9,1.6,5.3c1,1.4,2.3,2.1,3.9,2.1
				c3.3,0,6.6-2.6,10-7.7c0-6.5,1.2-13.3,3.6-20.3l5.1-15.1l16.7-3.1l-7,21.5c-2.2,6.9-3.4,12.4-3.4,16.4c0,2.5,0.5,4.4,1.6,5.9
				s2.5,2.2,4.3,2.2c2.2,0,4.3-0.8,6.2-2.4c2-1.6,4.2-4.1,6.6-7.4c-2.2-4-3.3-8.2-3.3-12.5c0-6.2,1.6-11.7,4.7-16.5
				c3.1-4.8,6.6-7.2,10.5-7.2c2.7,0,4,2,4,6.1c0,8.8-3.4,18.7-10.2,29.8c2.1,2,4.3,2.9,6.6,2.9c2.8,0,6.3-2.3,10.5-6.8V333.2z"/>
			<linearGradient id="SVGID_17_" gradientUnits="userSpaceOnUse" x1="502.5346" y1="210.7014" x2="515.9528" y2="295.0444">
				<stop  offset="0" style="stop-color:#0095A2"/>
				<stop  offset="0.5" style="stop-color:#009581"/>
				<stop  offset="1" style="stop-color:#006872"/>
			</linearGradient>
			<path class="st19" d="M555.1,333.2c-6.6,6.3-11.4,10.4-14.3,12.3c-2.9,1.9-5.6,2.9-8.2,2.9c-6.6,0-9.7-5.8-9.3-17.4
				c-4.2,5.9-8,10.3-11.5,13.1c-3.5,2.8-7.1,4.2-10.9,4.2c-3.7,0-6.8-1.7-9.3-5.1c-2.6-3.4-3.8-7.6-3.8-12.6
				c0-6.2,1.7-12.2,5.1-17.8c3.4-5.6,7.8-10.2,13.2-13.7s10.1-5.2,14.2-5.2c5.2,0,8.8,2.4,10.9,7.2l12.7-7h3.5l-5.5,18.3
				c-2.8,9.2-4.2,15.5-4.2,18.9c0,3.6,1.3,5.4,3.8,5.4c1.6,0,3.4-0.9,5.4-2.6c1.9-1.7,4.7-4.3,8.2-7.9V333.2z M509.5,336.6
				c4.2,0,8.1-3.5,11.7-10.6c3.7-7.1,5.5-13.6,5.5-19.6c0-2.3-0.5-4.1-1.6-5.5c-1-1.3-2.4-2-4.2-2c-4.2,0-8.1,3.5-11.8,10.6
				c-3.7,7.1-5.6,13.6-5.6,19.5c0,2.2,0.5,4.1,1.7,5.5C506.4,335.9,507.8,336.6,509.5,336.6z"/>
			<linearGradient id="SVGID_18_" gradientUnits="userSpaceOnUse" x1="562.8184" y1="201.1108" x2="576.2366" y2="285.4538">
				<stop  offset="0" style="stop-color:#0095A2"/>
				<stop  offset="0.5" style="stop-color:#009581"/>
				<stop  offset="1" style="stop-color:#006872"/>
			</linearGradient>
			<path class="st20" d="M584.8,304.7c3-3.6,5.8-6.3,8.5-8c2.7-1.7,5.6-2.6,8.8-2.6c4.2,0,7.6,1.6,10.2,4.8c2.6,3.2,4,7.4,4,12.7
				c0,9.2-3.2,17.6-9.5,25.3s-13.2,11.5-20.7,11.5c-2.1,0-3.7-0.2-4.9-0.7c-1.2-0.5-2.8-1.5-4.7-3.2c-3,13.2-4.9,23.7-5.8,31.7
				l-15.8,2.8c2.9-19.4,6.7-39.1,11.3-59.1c-5.5,7.2-9.2,11.6-11.1,13.3h-1.4v-5.6c7.9-8.5,14.4-18.9,19.5-31l14.1-2.6L584.8,304.7z
				 M577.6,338.1c2.2,3.6,4.5,5.4,7.2,5.4c4.2,0,7.9-3.2,11.1-9.6c3.2-6.4,4.8-12.6,4.8-18.7c0-3.2-0.7-5.8-2-7.8c-1.3-2-3-3-5.1-3
				c-1.6,0-3.3,0.7-5.1,2.2c-1.8,1.5-3.1,3.1-4,5.1s-2,5.3-3.1,10.1L577.6,338.1z"/>
		</g>
	</g>
</g>
<g id="H" class="st5">
	<g class="st6">
		<g>
			<linearGradient id="SVGID_19_" gradientUnits="userSpaceOnUse" x1="241.3282" y1="102.8917" x2="248.167" y2="257.9026">
				<stop  offset="0" style="stop-color:#7FE7FF"/>
				<stop  offset="0.1559" style="stop-color:#4ED8E3"/>
				<stop  offset="0.7475" style="stop-color:#00BFB7"/>
				<stop  offset="1" style="stop-color:#009FB7"/>
			</linearGradient>
			<path class="st21" d="M279.6,196.6v24.2h-20v49.4h-27.3v-49.4h-20v-24.2H279.6z"/>
			<linearGradient id="SVGID_20_" gradientUnits="userSpaceOnUse" x1="308.3824" y1="99.9335" x2="315.2211" y2="254.9443">
				<stop  offset="0" style="stop-color:#7FE7FF"/>
				<stop  offset="0.1559" style="stop-color:#4ED8E3"/>
				<stop  offset="0.7475" style="stop-color:#00BFB7"/>
				<stop  offset="1" style="stop-color:#009FB7"/>
			</linearGradient>
			<path class="st22" d="M355.3,270.1h-30.5l-2.1-10.5h-13.7l-2.1,10.5h-30.5l21.5-73.6h35.7C333.9,197,355.3,270.1,355.3,270.1z
				 M319.6,242.8l-3.7-18.9l-3.7,18.9H319.6z"/>
			<linearGradient id="SVGID_21_" gradientUnits="userSpaceOnUse" x1="387.1536" y1="96.4583" x2="393.9923" y2="251.4691">
				<stop  offset="0" style="stop-color:#7FE7FF"/>
				<stop  offset="0.1559" style="stop-color:#4ED8E3"/>
				<stop  offset="0.7475" style="stop-color:#00BFB7"/>
				<stop  offset="1" style="stop-color:#009FB7"/>
			</linearGradient>
			<path class="st23" d="M397.4,195c20,0,29.4,11.6,29.4,11.6l-12.6,20c0,0-6.3-5.8-13.7-5.8c-7.4,0-12.6,5.3-12.6,12.6
				c0,7.4,5.3,12.6,12.6,12.6c7.4,0,13.7-5.8,13.7-5.8l12.6,20c0,0-9.5,11.6-29.4,11.6c-22.1,0-38.9-16.8-38.9-38.4
				C358.5,211.8,375.3,195,397.4,195z"/>
			<linearGradient id="SVGID_22_" gradientUnits="userSpaceOnUse" x1="464.7374" y1="93.0355" x2="471.5761" y2="248.0463">
				<stop  offset="0" style="stop-color:#7FE7FF"/>
				<stop  offset="0.1559" style="stop-color:#4ED8E3"/>
				<stop  offset="0.7475" style="stop-color:#00BFB7"/>
				<stop  offset="1" style="stop-color:#009FB7"/>
			</linearGradient>
			<path class="st24" d="M486.7,233.4l22.1,36.8h-31.5l-14.7-29.4v29.4h-27.3v-73.6h27.3V226l12.6-29.4h31.5L486.7,233.4z"/>
			<linearGradient id="SVGID_23_" gradientUnits="userSpaceOnUse" x1="534.4628" y1="89.9593" x2="541.3015" y2="244.9702">
				<stop  offset="0" style="stop-color:#7FE7FF"/>
				<stop  offset="0.1559" style="stop-color:#4ED8E3"/>
				<stop  offset="0.7475" style="stop-color:#00BFB7"/>
				<stop  offset="1" style="stop-color:#009FB7"/>
			</linearGradient>
			<path class="st25" d="M541.4,246h28.4v24.2H514v-73.6h27.3V246z"/>
			<linearGradient id="SVGID_24_" gradientUnits="userSpaceOnUse" x1="600.0656" y1="87.0651" x2="606.9042" y2="242.076">
				<stop  offset="0" style="stop-color:#7FE7FF"/>
				<stop  offset="0.1559" style="stop-color:#4ED8E3"/>
				<stop  offset="0.7475" style="stop-color:#00BFB7"/>
				<stop  offset="1" style="stop-color:#009FB7"/>
			</linearGradient>
			<path class="st26" d="M605.5,249.1H637v21h-58.9v-73.6h56.8v21h-29.4v5.3h27.3v21h-27.3V249.1z"/>
		</g>
		<g>
			<path class="st0" d="M124.7,212.3c0.2,1,1.5,1.1,2,0.3c4.1-7.1,10-10.4,13.2-11.8C125.9,206,124.2,210.1,124.7,212.3z"/>
			<circle class="st0" cx="161.7" cy="208.2" r="2.4"/>
			<g>
				<linearGradient id="SVGID_25_" gradientUnits="userSpaceOnUse" x1="121.9556" y1="178.4938" x2="160.9591" y2="215.514">
					<stop  offset="0" style="stop-color:#0095A2"/>
					<stop  offset="0.5" style="stop-color:#009581"/>
					<stop  offset="1" style="stop-color:#006872"/>
				</linearGradient>
				<path class="st27" d="M153.1,196.6c-6.8,13.3-1.5,28.2,0.5,33c0.2,0.5,0.7,0.7,1.2,0.7c6.4-1,17.8-4.6,23.2-17.8
					c0.1-0.3,0.1-0.7-0.1-1c-1.7-2.5-9.8-13.3-23.6-15.4C153.8,195.9,153.3,196.2,153.1,196.6z M162.1,210.3c-1.3,0-2.4-1.1-2.4-2.4
					s1.1-2.4,2.4-2.4s2.4,1.1,2.4,2.4S163.4,210.3,162.1,210.3z"/>
				<linearGradient id="SVGID_26_" gradientUnits="userSpaceOnUse" x1="99.4545" y1="202.2003" x2="138.458" y2="239.2206">
					<stop  offset="0" style="stop-color:#0095A2"/>
					<stop  offset="0.5" style="stop-color:#009581"/>
					<stop  offset="1" style="stop-color:#006872"/>
				</linearGradient>
				<path class="st28" d="M150.2,195.7c-6.6-0.1-14.3,1.9-23,7.4c0,0-0.1,0-0.1,0.1c-1.1,0.9-18.2,15.4-12,41.2c0,0.1,0,0.2,0,0.2
					c0,1.1,3.7,12.5-11.4,14.6c-1.1,0.2-0.7,2,0.4,2.1c4.5,0.4,13.1,0.4,16.3,4.7c0.6,0.8,2-0.3,1.6-1.3c-1.6-4.6-2.5-11.2,0.8-16.4
					c6.5-10.1,10.4-15.6,27-17.7c0.1,0,0.1,0,0.2,0c0.1,0,0.2,0,0.6,0c0.7-0.1,1.2-0.8,1-1.5c-5.7-15.3-3.9-24.8-0.5-31.8
					C151.5,196.6,151,195.7,150.2,195.7z M136,229.5c-0.4-0.3-1.1-0.5-1.8-0.6c-1-0.2-1.3-1.5-0.4-2c0.9-0.5,1.6-1.2,2.5-2.3
					l0.2-0.3c0.6-0.8,1.8-0.4,2,0.5c0.4,2.3-0.2,3.7-0.9,4.5C137.1,229.7,136.4,229.8,136,229.5z M140.2,200.4
					c-2.8,1.2-10.5,5.2-13.1,9.9c-0.7,1.2-2.6,0.3-2-1C126.2,207,130,203.9,140.2,200.4C140.2,200.4,140.3,200.4,140.2,200.4
					c1.4-0.6,2.3-0.8,2.3-0.8C141.8,199.9,141,200.2,140.2,200.4z"/>
			</g>
			<g>
				<linearGradient id="SVGID_27_" gradientUnits="userSpaceOnUse" x1="107.9215" y1="184.6656" x2="166.0961" y2="293.7431">
					<stop  offset="0" style="stop-color:#7FE7FF"/>
					<stop  offset="0.1559" style="stop-color:#4ED8E3"/>
					<stop  offset="0.7475" style="stop-color:#00BFB7"/>
					<stop  offset="1" style="stop-color:#009FB7"/>
				</linearGradient>
				<path class="st29" d="M151.7,266.9c6.5-12.7,1.4-26.9-0.5-31.4c-0.2-0.4-0.7-0.7-1.1-0.6c-6.1,0.9-16.9,4.4-22.1,17
					c-0.1,0.3-0.1,0.7,0.1,1c1.6,2.3,9.3,12.7,22.5,14.6C151,267.6,151.5,267.3,151.7,266.9z M143.1,253.9c1.3,0,2.3,1,2.3,2.3
					c0,1.3-1,2.3-2.3,2.3s-2.3-1-2.3-2.3C140.8,255,141.9,253.9,143.1,253.9z"/>
				<linearGradient id="SVGID_28_" gradientUnits="userSpaceOnUse" x1="139.6433" y1="167.7473" x2="197.818" y2="276.8248">
					<stop  offset="0" style="stop-color:#7FE7FF"/>
					<stop  offset="0.1559" style="stop-color:#4ED8E3"/>
					<stop  offset="0.7475" style="stop-color:#00BFB7"/>
					<stop  offset="1" style="stop-color:#009FB7"/>
				</linearGradient>
				<path class="st30" d="M154.5,267.8c6.3,0.1,13.6-1.8,21.9-7c0,0,0.1,0,0.1-0.1c1-0.8,17.4-14.6,11.4-39.2c0-0.1,0-0.1,0-0.2
					c0-1-3.5-11.9,10.8-13.9c1.1-0.1,0.7-1.9-0.4-2c-4.3-0.4-12.5-0.3-15.5-4.5c-0.6-0.8-1.9,0.3-1.6,1.2c1.5,4.4,2.3,10.7-0.8,15.6
					c-6.2,9.6-9.9,14.8-25.7,16.9c-0.1,0-0.1,0-0.2,0c-0.1,0-0.2,0-0.6,0c-0.7,0.1-1.2,0.8-0.9,1.4c5.5,14.5,3.7,23.6,0.4,30.2
					C153.2,267,153.7,267.8,154.5,267.8z M168,235.6c0.4,0.3,1,0.5,1.7,0.6c1,0.1,1.2,1.4,0.4,1.9c-0.8,0.5-1.6,1.1-2.4,2.2
					l-0.2,0.3c-0.6,0.7-1.7,0.4-1.9-0.5c-0.4-2.2,0.2-3.5,0.8-4.3C166.9,235.4,167.5,235.3,168,235.6z M163.9,263.3
					c2.6-1.1,10-4.9,12.5-9.4c0.7-1.2,2.5-0.3,1.9,0.9C177.2,257.1,173.6,260,163.9,263.3C163.9,263.3,163.9,263.3,163.9,263.3
					c-1.4,0.6-2.2,0.8-2.2,0.8C162.5,263.8,163.2,263.6,163.9,263.3z"/>
			</g>
			<path d="M142.2,199.9c0,0-0.9,0.2-2.3,0.8C140.7,200.5,141.4,200.2,142.2,199.9z"/>
		</g>
		<g>
			<linearGradient id="SVGID_29_" gradientUnits="userSpaceOnUse" x1="289.4252" y1="165.423" x2="303.5034" y2="348.4385">
				<stop  offset="0" style="stop-color:#0095A2"/>
				<stop  offset="0.5" style="stop-color:#009581"/>
				<stop  offset="1" style="stop-color:#006872"/>
			</linearGradient>
			<path class="st31" d="M285.2,348.4c-4.4-2.4-7.8-5.8-10.1-10.2l12.1-6c1.2,2.4,2.9,4.2,5.1,5.3c2.2,1.1,5,1.7,8.4,1.7
				c3.2-0.1,5.8-0.6,7.6-1.6c1.8-0.9,2.8-2.2,2.8-3.7c0-0.7-0.2-1.4-0.6-2.2c-0.5-1-1.4-1.7-2.7-2.2c-1.3-0.5-3.5-1-6.8-1.4
				c-3.2-0.5-5.9-1.1-8-1.6c-2.1-0.5-4.1-1.3-6.1-2.5c-2.9-1.6-5.2-3.8-6.8-6.5c-1.6-2.7-2.4-5.6-2.4-8.8c0-1.1,0.2-2.4,0.5-3.9
				c0.8-4.1,3-7.6,6.5-10.5c3.5-2.8,7.8-4.7,12.8-5.4c2.3-0.2,4-0.4,5-0.4c5.4,0,10.2,1.2,14.5,3.6c4.3,2.4,7.8,6,10.5,10.6l-12,6.3
				c-2.9-5.2-7.1-7.7-12.8-7.7c-1,0-2.1,0.1-3.2,0.3c-2.2,0.3-4,1-5.4,2c-1.4,1.1-2.2,2.3-2.4,3.8c-0.1,0.4-0.2,1-0.2,1.7
				c0,1.9,1,3.2,2.9,4.1c1.9,0.8,4.8,1.6,8.8,2.2c3.6,0.5,6.6,1.2,9,1.8c2.4,0.7,4.8,1.9,7,3.7c2.2,1.8,3.7,4.4,4.6,7.7
				c0.5,1.7,0.7,3.5,0.7,5.3c0,4-1.2,7.4-3.7,10.3c-2,2.5-4.8,4.4-8.2,5.7c-3.5,1.3-7.4,2-11.8,2.1
				C294.8,352,289.6,350.8,285.2,348.4z"/>
			<linearGradient id="SVGID_30_" gradientUnits="userSpaceOnUse" x1="378.7334" y1="158.5531" x2="392.8116" y2="341.5687">
				<stop  offset="0" style="stop-color:#0095A2"/>
				<stop  offset="0.5" style="stop-color:#009581"/>
				<stop  offset="1" style="stop-color:#006872"/>
			</linearGradient>
			<path class="st32" d="M405.4,289.6L380.7,352H367l-17.5-62.4h14.1l11.4,40.3l16-40.3H405.4z M428.1,289.6L410.6,352h-13.7
				l-6.6-16.7l7.6-17.6l4.8,12.2l11.3-40.3H428.1z"/>
			<linearGradient id="SVGID_31_" gradientUnits="userSpaceOnUse" x1="455.4832" y1="152.6493" x2="469.5614" y2="335.6649">
				<stop  offset="0" style="stop-color:#0095A2"/>
				<stop  offset="0.5" style="stop-color:#009581"/>
				<stop  offset="1" style="stop-color:#006872"/>
			</linearGradient>
			<path class="st33" d="M463.6,289h12.6l12.6,32.7c-4,0.8-8.7,1.2-14,1.2l-4.8-12.2l-5.3,13.4c4.3,0.6,8.3,0.9,11.8,0.9
				c7.6,0,15.4-1.1,23.6-3.3v11.8l-6.1,1.4l6.6,17.1h-14.6l-6-15.7h-4.4c-3,0-5.5-0.1-7.5-0.2c-2-0.1-4.5-0.5-7.4-1l-6.5,16.9h-14.6
				L463.6,289z"/>
			<linearGradient id="SVGID_32_" gradientUnits="userSpaceOnUse" x1="533.5226" y1="146.6463" x2="547.6007" y2="329.6618">
				<stop  offset="0" style="stop-color:#0095A2"/>
				<stop  offset="0.5" style="stop-color:#009581"/>
				<stop  offset="1" style="stop-color:#006872"/>
			</linearGradient>
			<path class="st34" d="M528.6,332.6c-4-0.4-6.9-0.7-9-0.9l2-12.8c6.7,1.1,14.5,1.6,23.2,1.6c4,0,6.7-0.1,8.4-0.3
				c2.7-0.3,4.5-1.1,5.6-2.4c1.1-1.3,1.7-3.5,1.7-6.4c0-4.2-1.1-6.9-3.2-8.2c-2.1-1.3-3.9-1.9-5.4-1.9h-9.5v17
				c-6.6,0-11.2-0.2-13.8-0.6v-29.2h23.4c4.2,0,8,1,11.4,3c3.4,2,6,4.7,8,8.2c1.9,3.5,2.9,7.4,2.9,11.7c0,6.1-1.7,11.1-5.1,14.9
				c-3.4,3.8-8.2,6-14.3,6.6c-2.3,0.3-6.5,0.5-12.5,0.5V352h-13.8V332.6z"/>
		</g>
	</g>
</g>
<g id="I" class="st5">
	<g class="st6">
		<g>
			<g>
				<linearGradient id="SVGID_33_" gradientUnits="userSpaceOnUse" x1="241.4524" y1="105.7994" x2="248.1494" y2="257.5998">
					<stop  offset="0" style="stop-color:#7FE7FF"/>
					<stop  offset="0.1559" style="stop-color:#4ED8E3"/>
					<stop  offset="0.7475" style="stop-color:#00BFB7"/>
					<stop  offset="1" style="stop-color:#009FB7"/>
				</linearGradient>
				<path class="st35" d="M279,197.5v23.7h-19.6v48.4h-26.8v-48.4h-19.6v-23.7H279z"/>
				<linearGradient id="SVGID_34_" gradientUnits="userSpaceOnUse" x1="307.1177" y1="102.9024" x2="313.8148" y2="254.7028">
					<stop  offset="0" style="stop-color:#7FE7FF"/>
					<stop  offset="0.1559" style="stop-color:#4ED8E3"/>
					<stop  offset="0.7475" style="stop-color:#00BFB7"/>
					<stop  offset="1" style="stop-color:#009FB7"/>
				</linearGradient>
				<path class="st36" d="M353.1,269.6h-29.8l-2.1-10.3h-13.4l-2.1,10.3h-29.8l21.1-72h35C332.1,198,353.1,269.6,353.1,269.6z
					 M318.1,242.8l-3.6-18.5l-3.6,18.5H318.1z"/>
				<linearGradient id="SVGID_35_" gradientUnits="userSpaceOnUse" x1="384.2574" y1="99.4992" x2="390.9545" y2="251.2996">
					<stop  offset="0" style="stop-color:#7FE7FF"/>
					<stop  offset="0.1559" style="stop-color:#4ED8E3"/>
					<stop  offset="0.7475" style="stop-color:#00BFB7"/>
					<stop  offset="1" style="stop-color:#009FB7"/>
				</linearGradient>
				<path class="st37" d="M394.2,196c19.6,0,28.8,11.3,28.8,11.3l-12.4,19.6c0,0-6.2-5.7-13.4-5.7c-7.2,0-12.3,5.1-12.3,12.4
					c0,7.2,5.1,12.3,12.3,12.3c7.2,0,13.4-5.7,13.4-5.7l12.4,19.6c0,0-9.3,11.3-28.8,11.3c-21.6,0-38.1-16.5-38.1-37.6
					C356.2,212.5,372.6,196,394.2,196z"/>
				<linearGradient id="SVGID_36_" gradientUnits="userSpaceOnUse" x1="460.2344" y1="96.1472" x2="466.9315" y2="247.9477">
					<stop  offset="0" style="stop-color:#7FE7FF"/>
					<stop  offset="0.1559" style="stop-color:#4ED8E3"/>
					<stop  offset="0.7475" style="stop-color:#00BFB7"/>
					<stop  offset="1" style="stop-color:#009FB7"/>
				</linearGradient>
				<path class="st38" d="M481.7,233.6l21.6,36h-30.9l-14.4-28.8v28.8h-26.8v-72h26.8v28.8l12.3-28.8h30.9L481.7,233.6z"/>
				<linearGradient id="SVGID_37_" gradientUnits="userSpaceOnUse" x1="528.5157" y1="93.1348" x2="535.2128" y2="244.9353">
					<stop  offset="0" style="stop-color:#7FE7FF"/>
					<stop  offset="0.1559" style="stop-color:#4ED8E3"/>
					<stop  offset="0.7475" style="stop-color:#00BFB7"/>
					<stop  offset="1" style="stop-color:#009FB7"/>
				</linearGradient>
				<path class="st39" d="M535.3,245.9h27.8v23.7h-54.5v-72h26.8V245.9z"/>
				<linearGradient id="SVGID_38_" gradientUnits="userSpaceOnUse" x1="592.7598" y1="90.3005" x2="599.4568" y2="242.101">
					<stop  offset="0" style="stop-color:#7FE7FF"/>
					<stop  offset="0.1559" style="stop-color:#4ED8E3"/>
					<stop  offset="0.7475" style="stop-color:#00BFB7"/>
					<stop  offset="1" style="stop-color:#009FB7"/>
				</linearGradient>
				<path class="st40" d="M598.1,249h30.9v20.6h-57.6v-72h55.6v20.6h-28.8v5.1h26.8v20.6h-26.8V249z"/>
			</g>
			<g>
				<path class="st0" d="M127.2,212.9c0.2,0.9,1.5,1.1,2,0.2c4-6.9,9.8-10.2,12.9-11.5C128.4,206.8,126.7,210.7,127.2,212.9z"/>
				<circle class="st0" cx="163.5" cy="208.9" r="2.4"/>
				<g>
					<linearGradient id="SVGID_39_" gradientUnits="userSpaceOnUse" x1="124.5521" y1="179.8356" x2="162.7477" y2="216.0892">
						<stop  offset="0" style="stop-color:#0095A2"/>
						<stop  offset="0.5" style="stop-color:#009581"/>
						<stop  offset="1" style="stop-color:#006872"/>
					</linearGradient>
					<path class="st41" d="M155,197.6c-6.7,13.1-1.5,27.7,0.5,32.3c0.2,0.5,0.7,0.7,1.2,0.7c6.3-0.9,17.4-4.5,22.7-17.5
						c0.1-0.3,0.1-0.7-0.1-1c-1.6-2.4-9.6-13-23.1-15.1C155.7,196.9,155.2,197.2,155,197.6z M163.8,211c-1.3,0-2.4-1.1-2.4-2.4
						s1.1-2.4,2.4-2.4s2.4,1.1,2.4,2.4S165.1,211,163.8,211z"/>
					<linearGradient id="SVGID_40_" gradientUnits="userSpaceOnUse" x1="102.517" y1="203.0512" x2="140.7126" y2="239.3047">
						<stop  offset="0" style="stop-color:#0095A2"/>
						<stop  offset="0.5" style="stop-color:#009581"/>
						<stop  offset="1" style="stop-color:#006872"/>
					</linearGradient>
					<path class="st42" d="M152.2,196.7c-6.5-0.1-14,1.8-22.6,7.2c0,0-0.1,0-0.1,0.1c-1.1,0.9-17.9,15.1-11.8,40.3
						c0,0.1,0,0.2,0,0.2c0,1.1,3.6,12.3-11.1,14.3c-1.1,0.2-0.7,1.9,0.4,2.1c4.4,0.4,12.8,0.4,16,4.6c0.6,0.8,1.9-0.3,1.6-1.3
						c-1.5-4.5-2.4-11,0.8-16c6.4-9.8,10.2-15.3,26.5-17.4c0.1,0,0.1,0,0.2,0c0.1,0,0.2,0,0.6,0c0.7-0.1,1.2-0.8,0.9-1.5
						c-5.6-15-3.8-24.3-0.5-31.1C153.5,197.5,153,196.7,152.2,196.7z M138.3,229.8c-0.4-0.3-1.1-0.5-1.8-0.6c-1-0.1-1.3-1.5-0.4-2
						c0.8-0.5,1.6-1.2,2.4-2.2l0.2-0.3c0.6-0.7,1.8-0.4,1.9,0.5c0.4,2.3-0.2,3.6-0.8,4.4C139.4,230,138.7,230.1,138.3,229.8z
						 M142.5,201.3c-2.7,1.2-10.3,5.1-12.9,9.7c-0.7,1.2-2.6,0.3-2-1C128.7,207.7,132.5,204.7,142.5,201.3
						C142.5,201.3,142.5,201.3,142.5,201.3c1.4-0.6,2.3-0.8,2.3-0.8C143.9,200.8,143.2,201.1,142.5,201.3z"/>
				</g>
				<g>
					<linearGradient id="SVGID_41_" gradientUnits="userSpaceOnUse" x1="110.8086" y1="185.8796" x2="167.7784" y2="292.698">
						<stop  offset="0" style="stop-color:#7FE7FF"/>
						<stop  offset="0.1559" style="stop-color:#4ED8E3"/>
						<stop  offset="0.7475" style="stop-color:#00BFB7"/>
						<stop  offset="1" style="stop-color:#009FB7"/>
					</linearGradient>
					<path class="st43" d="M153.7,266.4c6.3-12.4,1.4-26.3-0.5-30.7c-0.2-0.4-0.6-0.7-1.1-0.6c-6,0.9-16.6,4.3-21.6,16.6
						c-0.1,0.3-0.1,0.7,0.1,1c1.6,2.3,9.1,12.4,22,14.3C153,267.1,153.5,266.8,153.7,266.4z M145.3,253.7c1.3,0,2.3,1,2.3,2.3
						c0,1.3-1,2.3-2.3,2.3c-1.3,0-2.3-1-2.3-2.3C143,254.7,144.1,253.7,145.3,253.7z"/>
					<linearGradient id="SVGID_42_" gradientUnits="userSpaceOnUse" x1="141.8734" y1="169.3117" x2="198.8432" y2="276.1301">
						<stop  offset="0" style="stop-color:#7FE7FF"/>
						<stop  offset="0.1559" style="stop-color:#4ED8E3"/>
						<stop  offset="0.7475" style="stop-color:#00BFB7"/>
						<stop  offset="1" style="stop-color:#009FB7"/>
					</linearGradient>
					<path class="st44" d="M156.4,267.3c6.1,0.1,13.3-1.7,21.5-6.9c0,0,0.1,0,0.1-0.1c1-0.8,17-14.3,11.2-38.4c0-0.1,0-0.1,0-0.2
						c0-1-3.4-11.7,10.6-13.7c1-0.1,0.7-1.9-0.4-2c-4.2-0.4-12.2-0.3-15.2-4.4c-0.6-0.8-1.8,0.3-1.5,1.2c1.5,4.3,2.3,10.5-0.8,15.2
						c-6,9.4-9.7,14.5-25.2,16.5c-0.1,0-0.1,0-0.2,0c-0.1,0-0.2,0-0.5,0c-0.7,0.1-1.1,0.8-0.9,1.4c5.3,14.2,3.6,23.1,0.4,29.6
						C155.1,266.5,155.6,267.3,156.4,267.3z M169.6,235.8c0.4,0.3,1,0.5,1.7,0.6c1,0.1,1.2,1.4,0.4,1.9c-0.8,0.5-1.5,1.1-2.3,2.1
						l-0.2,0.3c-0.6,0.7-1.7,0.4-1.8-0.5c-0.4-2.2,0.2-3.5,0.8-4.2C168.5,235.6,169.2,235.5,169.6,235.8z M165.6,262.9
						c2.6-1.1,9.8-4.8,12.2-9.2c0.6-1.2,2.4-0.3,1.9,0.9C178.7,256.8,175.2,259.6,165.6,262.9C165.6,262.9,165.6,262.9,165.6,262.9
						c-1.3,0.6-2.2,0.8-2.2,0.8C164.2,263.4,164.9,263.1,165.6,262.9z"/>
				</g>
				<path d="M144.4,200.8c0,0-0.9,0.2-2.3,0.8C142.9,201.4,143.6,201.1,144.4,200.8z"/>
			</g>
		</g>
	</g>
	<g class="st6">
		<linearGradient id="SVGID_43_" gradientUnits="userSpaceOnUse" x1="495.5352" y1="175.3845" x2="465.9926" y2="287.6464">
			<stop  offset="0" style="stop-color:#0095A2"/>
			<stop  offset="0.5" style="stop-color:#009581"/>
			<stop  offset="1" style="stop-color:#006872"/>
		</linearGradient>
		<path class="st45" d="M467.5,269.2c-4.8-0.9-8-0.8-9.7,0.4c-1.7,1.2-2.1,2.9-1.3,5.3s2.5,5,5.1,7.9c1.8,1.8,4,3.9,6.7,6.2
			c2.8,2.4,5.6,4.9,8.3,7.7c2.7,2.7,4.9,5.6,6.5,8.5c1.6,2.9,2,5.9,1.4,8.8c-0.7,2.9-3,5.8-6.9,8.6c-4.5,3-9.1,4.6-13.8,4.7
			c-4.7,0.1-8.9-1-12.6-3.4c-2.2-1.4-4.1-3.3-5.8-5.7c-1.7-2.4-2.5-5-2.4-8c0.1-2.9,1.6-5.9,4.7-8.9c0.1,2.8,0.9,5.4,2.3,7.8
			c1.4,2.4,3.2,4.2,5.4,5.5c2.2,1.3,4.5,1.8,6.9,1.5c2.5-0.3,4.8-1.7,7-4.2c1.2-1.3,1.3-3.1,0.2-5.3c-1.1-2.3-4-5.1-8.6-8.3
			c-6.3-4.5-10.7-8.9-13.2-13.2c-2.5-4.3-3.6-8.1-3.4-11.6c0.2-3,1.4-6,3.6-8.8c2.2-2.9,5.4-5,9.5-6.3c4.2-1.3,9.4-1,15.7,0.8
			c5.7,1.8,9.3,4.8,11,9.1c1.6,4.3,0.8,9.5-2.7,15.5c-0.4,0.7-0.9,0.7-1.3,0.1c-0.5-0.6-1-1.6-1.6-3c-0.6-1.4-1.4-2.9-2.4-4.6
			s-2.2-3.2-3.6-4.5C471.2,270.5,469.5,269.6,467.5,269.2z"/>
		<linearGradient id="SVGID_44_" gradientUnits="userSpaceOnUse" x1="544.5054" y1="188.2714" x2="514.9628" y2="300.5332">
			<stop  offset="0" style="stop-color:#0095A2"/>
			<stop  offset="0.5" style="stop-color:#009581"/>
			<stop  offset="1" style="stop-color:#006872"/>
		</linearGradient>
		<path class="st46" d="M509.8,293.9c0.8-2.6,1.9-4.4,3.4-5.4c1.5-1,2.9-1,4.2,0.1c1.3,1,2.1,3.3,2.3,6.8c0.1,1.7,0.3,4.1,0.7,7.3
			c0.4,3.2,0.9,6.1,1.5,8.9c0.6,2.7,1.3,4.3,2.1,4.7c1-0.7,2.2-2.6,3.4-5.7c1.3-3.1,2.5-6.7,3.7-10.7c1.2-4,2.3-7.7,3.2-11
			c3.9,0.1,6.4,1.5,7.4,4.1c1,2.6,0.4,7.1-1.9,13.5c-1.1,3.3-2.4,6.5-3.9,9.5c-1.4,3-3.3,5.4-5.5,7.2c-2.2,1.8-4.5,2.6-6.9,2.5
			c-2.4-0.1-4.3-0.9-5.8-2.5c-1.5-1.6-2.8-4.7-4-9.4c-0.5,2.2-1.2,4.1-2.1,5.7c-0.9,1.6-1.8,2.7-2.8,3.5c-2.6,2-5.1,2.8-7.7,2.4
			c-2.5-0.4-4.5-1.6-6-3.7c-1.5-2.1-2.6-5-3.6-8.9c-0.9-3.9-1.5-7.4-1.9-10.6c-0.3-3.2-0.2-5.9,0.3-8.2c0.5-2.1,1.5-3.6,3-4.7
			c1.5-1.1,2.9-1.1,4.3-0.2c1.4,0.9,2.2,3.4,2.5,7.3c0,1.7,0.2,4,0.5,7.1c0.3,3,0.7,5.9,1.2,8.5c0.5,2.6,1,4.1,1.7,4.5
			c1.1-0.8,2-2,2.7-3.7c0.7-1.7,1.2-3.6,1.7-5.8c0.4-2.2,0.8-4.3,1.1-6.4C508.9,297.7,509.3,295.5,509.8,293.9z"/>
		<linearGradient id="SVGID_45_" gradientUnits="userSpaceOnUse" x1="600.3583" y1="202.9695" x2="570.8157" y2="315.2314">
			<stop  offset="0" style="stop-color:#0095A2"/>
			<stop  offset="0.5" style="stop-color:#009581"/>
			<stop  offset="1" style="stop-color:#006872"/>
		</linearGradient>
		<path class="st47" d="M557,324.2c-1.9,0-4-0.6-6.1-1.9c-2.2-1.3-3.9-3.7-5-7.2c-1.2-4.5-1.2-8.8,0-12.9c1.3-4.1,3.2-7.7,6-10.8
			c2.7-3.1,5.6-5.2,8.7-6.1c3.1-0.9,5.4-1,7.1-0.2s2.7,1.7,3.4,2.7c0.6,1,0.9,2,0.9,3c0,0.1,0,0.4,0,1c0,0.6-0.4,1.1-1.2,1.5
			c-0.3,0.2-0.5,0.3-0.8,0.3c-0.5,0-1.1-0.3-1.8-1c-0.8-0.7-1.5-1.1-2-1.1c-0.2,0-0.5,0.1-0.7,0.2c-2.2,1.3-4.6,3.9-7.2,7.8
			c-2.6,3.9-3.8,7.5-3.7,10.8c0.2,3.3,1.2,5,3.2,5.1c1.9,0.1,3.8-0.8,5.5-2.6c2.3-2.4,4.9-6.8,7.9-13.2c0.9-1.9,1.9-3.7,2.8-5.4
			c1.1-1.8,2.1-2.7,3.1-2.7c0.2,0,0.7,0.1,1.4,0.4c0.7,0.3,1.4,1.5,2.2,3.7c0.6,1.8,1.4,3.9,2.4,6.1c1,2.2,2,4.1,3.2,5.5
			c1.1,1.5,2.3,2.2,3.6,2.4c1.3,0.1,2.8-0.6,4.7-2.2c1.9-1.6,3.5-3.4,4.8-5.5c1.3-2.1,2.1-3.2,2.5-3.2c0.1,0,0.2,0,0.2,0.1
			c0.4,0.4,0.5,1.6,0.4,3.8c-0.2,2.2-0.8,4.6-2,7.2c-1.2,2.6-2.7,4.8-4.7,6.5c-2,1.7-4,2.6-6,2.6c-2.8,0-5.1-0.7-7-2.1
			c-1.9-1.4-3.4-3-4.5-4.8c-1.1-1.8-1.8-3.4-2.2-4.7c-0.9,3.1-2.6,6.3-5.3,9.4c-2.7,3.2-5.5,5.4-8.4,6.6
			C560.2,323.9,558.5,324.2,557,324.2z"/>
		<linearGradient id="SVGID_46_" gradientUnits="userSpaceOnUse" x1="637.9283" y1="212.8564" x2="608.3857" y2="325.1182">
			<stop  offset="0" style="stop-color:#0095A2"/>
			<stop  offset="0.5" style="stop-color:#009581"/>
			<stop  offset="1" style="stop-color:#006872"/>
		</linearGradient>
		<path class="st48" d="M631.1,307.5c-0.7,3.7-2.1,7-4,9.9c-1.9,2.9-4.3,5.2-7.1,6.7c-2.8,1.5-5.8,1.9-9,1.2c0.1,3.7,0.1,7.4,0,11.1
			c-0.1,3.7-0.4,7.2-0.9,10.6c-0.5,3.3-1.4,6.1-2.6,8.5c-1.2,2.3-2.8,4.4-4.7,6.3s-4,3-6.2,3.3c-2.2,0.3-4.4-0.6-6.6-2.9
			c-2.3-2.7-3.4-6-3.3-10c0.1-4,0.9-8.1,2.5-12.3c1.6-4.2,3.4-8.1,5.6-11.6c2.2-3.5,4.1-6.1,5.9-7.9c0.2-2.5,0.2-5.1-0.1-7.9
			c-0.3-2.8-1-5.3-2.2-7.6c-1.3-2.4-1.8-4.2-1.4-5.7c0.4-1.4,1.2-2.5,2.5-3.1c1-0.6,2-0.8,3-0.8c1.1,0.1,2,0.9,2.8,2.6
			c1.5-4.1,3.5-7,5.9-8.6c2.4-1.6,4.8-2.3,7.4-1.9c2.6,0.4,4.9,1.5,7,3.4c2.1,1.9,3.7,4.3,4.8,7.2
			C631.6,300.9,631.8,304.1,631.1,307.5z M597.3,353.7c0.8-0.4,1.4-1.8,1.9-4.3c0.4-2.5,0.8-5.3,1-8.5c0.2-3.2,0.4-6,0.5-8.5
			c0.1-1.6,0.2-2.7,0.2-3.5c-1.1,1.6-2.2,4-3.1,7.3c-0.9,3.3-1.5,6.6-1.7,10C595.9,349.5,596.3,352,597.3,353.7z M610.2,313.4
			c0.9,2.2,2.1,3.3,3.6,3.2c1.4-0.1,2.8-1.1,4.2-2.7c1.4-1.7,2.5-3.7,3.2-6.1c0.7-2.2,0.9-4.3,0.7-6.3c-0.2-2-0.9-3.4-1.9-4.5
			c-1.1-1-2.5-1.3-4.2-0.8c-2.2,0.9-3.8,2.3-4.7,4.3c-0.9,1.9-1.3,4.1-1.3,6.4C609.8,309.1,609.9,311.3,610.2,313.4z"/>
	</g>
</g>
</svg>
