<?xml version="1.0" standalone="no"?>
<!DOCTYPE svg PUBLIC "-//W3C//DTD SVG 20010904//EN"
 "http://www.w3.org/TR/2001/REC-SVG-20010904/DTD/svg10.dtd">
<svg version="1.0" xmlns="http://www.w3.org/2000/svg"
 width="693.000000pt" height="693.000000pt" viewBox="0 0 693.000000 693.000000"
 preserveAspectRatio="xMidYMid meet">
<metadata>
Created by potrace 1.11, written by Peter Selinger 2001-2013
</metadata>
<g transform="translate(0.000000,693.000000) scale(0.100000,-0.100000)"
fill="#000000" stroke="none">
<path d="M3400 5553 c-333 -36 -672 -154 -1016 -354 -201 -117 -442 -405 -599
-716 -135 -265 -217 -549 -245 -848 -19 -210 -8 -426 36 -660 59 -317 65 -430
28 -556 -65 -222 -266 -372 -574 -430 -36 -6 -73 -16 -82 -21 -40 -20 -7 -108
40 -108 41 0 358 -31 418 -40 233 -37 406 -112 492 -214 28 -33 57 -31 85 6
19 26 19 26 -2 95 -76 252 -85 504 -25 696 34 106 54 146 154 297 278 420 464
595 769 723 169 70 406 130 643 160 59 8 114 20 123 27 24 20 19 51 -39 230
-105 325 -147 567 -147 841 1 277 42 480 145 717 42 97 44 125 14 146 -22 16
-121 19 -218 9z m-527 -343 c-259 -136 -441 -280 -560 -440 -52 -70 -78 -82
-119 -56 -104 69 132 286 475 437 103 46 291 118 306 119 6 0 -40 -27 -102
-60z m33 -1263 c25 -22 27 -29 27 -103 0 -91 -24 -161 -67 -189 -29 -19 -36
-18 -141 18 -99 34 -119 83 -51 128 17 12 63 55 102 95 39 41 78 74 87 74 9 0
28 -10 43 -23z"/>
<path d="M3777 5529 c-32 -19 -116 -225 -156 -384 -65 -261 -73 -572 -21 -875
40 -229 147 -583 195 -638 l23 -26 80 11 c97 14 266 63 380 108 285 115 527
310 702 566 78 113 174 304 174 345 0 67 -242 339 -454 507 -231 185 -520 322
-790 376 -117 24 -110 24 -133 10z m539 -535 c96 -46 99 -190 4 -239 -88 -45
-194 21 -192 121 0 52 27 94 74 117 42 21 71 21 114 1z"/>
<path d="M5956 5025 c-3 -9 -10 -13 -16 -10 -5 3 -10 0 -10 -9 0 -8 -6 -17
-12 -20 -7 -2 -2 -3 12 -2 14 2 25 7 25 12 0 5 4 15 9 22 4 7 6 15 3 18 -2 3
-7 -2 -11 -11z"/>
<path d="M6005 5020 c-4 -6 -11 -8 -16 -5 -15 10 -10 -12 7 -29 8 -9 13 -16
11 -16 -3 0 -13 -3 -23 -7 -12 -4 -15 -3 -10 5 4 7 2 12 -3 12 -6 0 -11 -5
-11 -12 0 -6 -3 -9 -6 -5 -4 3 -19 0 -35 -8 -35 -19 -40 -19 -33 -1 3 8 -3 19
-14 25 -14 8 -19 7 -19 -4 0 -8 4 -12 8 -9 4 2 10 1 12 -3 6 -10 -18 -45 -30
-43 -4 0 -9 -8 -11 -20 -2 -11 -8 -20 -13 -20 -6 0 -7 -5 -4 -10 4 -6 12 -4
21 5 9 8 19 13 24 10 4 -3 14 3 21 12 12 15 12 16 -3 10 -10 -3 -18 -2 -18 2
0 14 29 21 36 9 5 -7 10 -3 16 11 8 23 28 21 24 -2 -3 -21 -17 -38 -27 -32
-10 7 -41 -19 -33 -28 3 -2 -2 -7 -11 -11 -9 -3 -13 -2 -10 4 3 6 2 10 -4 10
-5 0 -11 -4 -13 -10 -1 -5 -13 -7 -25 -4 -13 4 -21 9 -18 13 2 4 -5 20 -16 37
-10 16 -19 23 -19 16 0 -8 -5 -10 -12 -6 -6 4 1 -11 18 -33 16 -23 31 -40 34
-38 3 2 12 -1 20 -7 13 -8 12 -9 -1 -5 -9 3 -22 0 -28 -6 -8 -8 -11 -6 -12 9
0 10 -3 13 -6 6 -2 -6 -9 -10 -13 -7 -5 3 -6 13 -3 22 4 11 2 14 -8 11 -8 -3
-13 -11 -11 -17 1 -6 -3 -11 -9 -11 -6 0 -9 9 -6 20 3 11 1 20 -4 20 -9 0 -13
-13 -10 -40 1 -10 -5 -8 -18 8 -10 12 -24 22 -30 22 -6 0 -11 4 -11 9 0 5 -10
11 -22 14 -21 5 -21 5 -6 -7 10 -7 14 -17 10 -21 -4 -5 -2 -5 5 -1 6 3 16 -2
22 -11 5 -10 13 -17 18 -15 4 2 9 -1 11 -6 1 -5 -5 -12 -15 -15 -10 -2 -27 -8
-37 -13 -15 -6 -18 -4 -14 7 4 10 -1 15 -12 15 -11 0 -16 -6 -13 -14 4 -10 -1
-11 -20 -7 -32 8 -47 -13 -22 -32 18 -13 18 -13 0 -27 -11 -8 -24 -12 -29 -9
-5 4 -6 1 -1 -6 5 -9 11 -9 17 -3 6 6 16 9 22 6 6 -2 16 8 23 22 10 21 10 25
-2 20 -7 -2 -19 2 -25 10 -17 19 5 19 44 -1 35 -18 36 -18 36 -1 0 7 19 21 43
30 44 16 67 20 67 11 0 -13 -33 -55 -43 -55 -6 0 0 11 13 25 25 26 17 33 -12
11 -10 -7 -18 -23 -18 -35 0 -11 -5 -21 -11 -21 -6 0 -8 7 -5 16 3 8 2 13 -3
9 -5 -3 -11 -2 -14 2 -2 5 -2 2 0 -5 2 -9 -5 -13 -20 -12 -36 3 -47 1 -47 -11
0 -8 4 -8 13 -1 8 7 18 7 27 2 12 -8 11 -10 -5 -10 -11 0 -31 -7 -43 -16 -13
-9 -22 -11 -22 -4 0 6 -5 8 -11 4 -6 -3 -8 -18 -5 -33 l5 -26 -12 28 c-6 15
-17 25 -23 23 -7 -3 -15 0 -18 7 -2 7 -5 4 -5 -5 -1 -10 0 -20 2 -21 1 -2 -5
-12 -13 -23 -8 -10 -10 -16 -6 -12 5 4 15 3 22 -3 8 -6 20 -9 27 -6 8 3 20 1
28 -5 12 -8 12 -9 -1 -5 -8 2 -26 -5 -40 -17 -13 -11 -19 -14 -12 -5 14 18 7
29 -20 29 -17 0 -23 16 -18 49 1 13 -1 13 -14 2 -13 -11 -16 -11 -16 1 0 9 9
15 21 14 14 -1 25 7 30 22 7 17 6 22 -4 19 -6 -2 -20 0 -31 5 -13 7 -16 7 -12
-1 4 -6 0 -11 -11 -11 -13 0 -14 -3 -6 -8 9 -6 10 -17 4 -40 -5 -17 -6 -31 -3
-31 20 3 20 -3 1 -22 -12 -12 -19 -29 -16 -40 3 -10 1 -22 -4 -25 -5 -3 -9
-14 -9 -26 0 -30 -47 -155 -77 -208 -15 -25 -58 -92 -97 -150 -242 -363 -399
-518 -651 -640 -183 -90 -370 -143 -640 -182 -82 -12 -156 -26 -162 -31 -20
-15 -16 -43 27 -166 85 -250 131 -464 152 -703 24 -281 -26 -580 -141 -831
-36 -79 -37 -94 -14 -126 16 -24 17 -24 157 -18 195 8 348 39 556 112 176 62
260 101 481 227 120 68 276 226 402 406 349 499 474 1109 352 1727 -72 368
-60 503 59 675 17 25 34 46 38 48 4 2 19 12 33 24 20 16 23 23 14 34 -8 10 -8
14 0 14 6 0 11 -4 11 -10 0 -16 14 -12 43 15 15 14 27 23 27 19 0 -4 9 1 20
11 11 10 20 15 20 12 0 -3 24 5 53 18 28 14 60 25 70 25 11 0 15 4 11 12 -4 6
-3 8 3 5 10 -6 186 28 205 39 12 8 10 48 -5 68 -14 19 -44 24 -167 30 -36 2
-73 7 -84 11 -12 5 -21 3 -27 -6 -7 -12 -9 -12 -9 1 0 10 -7 7 -20 -10 -10
-14 -22 -22 -26 -18 -4 4 -1 14 6 23 7 8 10 15 7 15 -3 0 -9 -5 -12 -10z m84
-31 c-25 -19 -51 -19 -57 1 -3 9 2 11 17 7 11 -3 23 -2 26 2 2 4 12 8 21 8 12
0 11 -4 -7 -18z m-124 -47 c-3 -3 -11 0 -18 7 -9 10 -8 11 6 5 10 -3 15 -9 12
-12z m148 -5 c7 3 8 2 4 -2 -14 -16 -36 -14 -29 3 4 10 7 12 10 4 2 -7 9 -9
15 -5z m-101 -29 c-2 -10 -6 -18 -7 -18 -1 0 -5 8 -7 18 -3 11 0 19 7 19 7 0
10 -8 7 -19z m38 18 c0 -3 -4 -8 -10 -11 -5 -3 -10 -1 -10 4 0 6 5 11 10 11 6
0 10 -2 10 -4z m144 -4 c3 -5 -1 -9 -9 -9 -8 0 -12 4 -9 9 3 4 7 8 9 8 2 0 6
-4 9 -8z m-347 -24 c-3 -8 -6 -5 -6 6 -1 11 2 17 5 13 3 -3 4 -12 1 -19z m143
8 c0 -2 -9 -6 -20 -9 -11 -3 -20 -1 -20 4 0 5 9 9 20 9 11 0 20 -2 20 -4z m51
-29 c-10 -9 -11 -8 -5 6 3 10 9 15 12 12 3 -3 0 -11 -7 -18z m-57 -7 c-10 -4
-23 -5 -28 -2 -5 3 -1 9 10 12 10 4 23 5 28 2 5 -3 1 -9 -10 -12z m-68 -12
c-10 -6 -20 -7 -24 -3 -9 8 20 25 31 18 5 -3 2 -10 -7 -15z m-11 -37 c-3 -2
-12 2 -21 10 -16 13 -17 12 -12 -8 4 -13 1 -26 -4 -30 -7 -4 -8 -1 -3 7 6 10
4 12 -8 7 -16 -6 -16 -5 -1 18 13 20 19 22 34 12 11 -6 17 -13 15 -16z m59 13
c3 -8 2 -12 -4 -9 -6 3 -10 10 -10 16 0 14 7 11 14 -7z m-169 -34 c-3 -5 -1
-10 6 -10 7 0 10 -3 6 -6 -9 -9 -28 6 -22 17 4 5 8 9 11 9 3 0 2 -4 -1 -10z
m-30 -16 c13 -5 14 -8 3 -15 -19 -12 -25 -11 -25 6 0 17 0 17 22 9z m36 -37
c-10 -9 -11 -8 -5 6 3 10 9 15 12 12 3 -3 0 -11 -7 -18z m50 6 c13 -16 12 -17
-3 -4 -17 13 -22 21 -14 21 2 0 10 -8 17 -17z m-162 -16 c-2 -1 -11 -8 -20
-15 -13 -9 -16 -9 -16 3 0 8 9 15 20 15 11 0 18 -1 16 -3z m86 -7 c3 -6 -1 -7
-9 -4 -18 7 -21 14 -7 14 6 0 13 -4 16 -10z m-45 -20 c0 -5 -2 -10 -4 -10 -3
0 -8 5 -11 10 -3 6 -1 10 4 10 6 0 11 -4 11 -10z m30 -15 c14 -19 14 -19 -2
-6 -10 7 -18 18 -18 24 0 6 1 8 3 6 1 -2 9 -13 17 -24z m-140 5 c0 -5 -2 -10
-4 -10 -3 0 -8 5 -11 10 -3 6 -1 10 4 10 6 0 11 -4 11 -10z m-30 -4 c0 -2 -7
-6 -15 -10 -8 -3 -15 -1 -15 4 0 6 7 10 15 10 8 0 15 -2 15 -4z m90 0 c0 -2
-8 -10 -17 -17 -16 -13 -17 -12 -4 4 13 16 21 21 21 13z m-246 -95 c3 -5 -2
-15 -12 -22 -15 -12 -16 -12 -5 2 7 9 10 19 6 22 -3 4 -4 7 0 7 3 0 8 -4 11
-9z m-4 -51 c0 -5 -5 -10 -11 -10 -5 0 -7 5 -4 10 3 6 8 10 11 10 2 0 4 -4 4
-10z m-772 -1261 c75 -26 97 -52 82 -95 -6 -16 -26 -40 -46 -53 -20 -14 -59
-51 -88 -83 -42 -46 -59 -58 -83 -58 -49 0 -66 29 -67 112 -1 86 22 157 62
189 30 23 44 22 140 -12z m512 -999 c25 -25 25 -31 -1 -81 -68 -135 -299 -277
-678 -420 -57 -21 -107 -39 -110 -39 -3 0 48 29 114 63 267 139 453 285 555
437 43 65 82 78 120 40z"/>
<path d="M5893 5005 c0 -8 4 -12 9 -9 5 3 6 10 3 15 -9 13 -12 11 -12 -6z"/>
<path d="M5750 4990 c0 -6 7 -10 15 -10 8 0 15 2 15 4 0 2 -7 6 -15 10 -8 3
-15 1 -15 -4z"/>
<path d="M5831 4964 c0 -11 3 -14 6 -6 3 7 2 16 -1 19 -3 4 -6 -2 -5 -13z"/>
<path d="M5720 4930 c0 -5 7 -7 15 -4 8 4 15 8 15 10 0 2 -7 4 -15 4 -8 0 -15
-4 -15 -10z"/>
<path d="M5497 4814 c2 -6 11 -11 18 -10 26 4 26 13 1 18 -16 3 -23 1 -19 -8z"/>
<path d="M5426 4801 c-3 -5 1 -12 10 -15 20 -8 29 -1 19 13 -8 13 -22 14 -29
2z"/>
<path d="M3488 3320 c-219 -46 -416 -126 -589 -241 -115 -77 -312 -270 -389
-384 -66 -97 -170 -299 -170 -331 0 -32 137 -201 263 -325 166 -164 366 -304
561 -393 158 -72 446 -148 484 -127 43 23 143 304 177 496 38 217 27 535 -26
784 -48 219 -141 492 -179 523 -26 21 -21 21 -132 -2z m-222 -1069 c32 -20 64
-74 64 -111 0 -37 -30 -89 -65 -110 -65 -40 -156 -15 -189 54 -28 59 -17 109
35 157 25 23 40 29 78 29 27 0 58 -8 77 -19z"/>
</g>
</svg>
